<?xml version="1.0" encoding="UTF-8" standalone="no"?>
<svg
   version="1.1"
   viewBox="0 0 256 134"
   id="svg6870"
   sodipodi:docname="battery.svg"
   inkscape:version="1.1.1 (c3084ef, 2021-09-22)"
   xmlns:inkscape="http://www.inkscape.org/namespaces/inkscape"
   xmlns:sodipodi="http://sodipodi.sourceforge.net/DTD/sodipodi-0.dtd"
   xmlns="http://www.w3.org/2000/svg"
   xmlns:svg="http://www.w3.org/2000/svg">
  <defs
     id="defs6874" />
  <sodipodi:namedview
     id="namedview6872"
     pagecolor="#ffffff"
     bordercolor="#666666"
     borderopacity="1.0"
     inkscape:pageshadow="2"
     inkscape:pageopacity="0.0"
     inkscape:pagecheckerboard="0"
     showgrid="false"
     inkscape:zoom="4.3398438"
     inkscape:cx="72.468047"
     inkscape:cy="45.854185"
     inkscape:window-width="1920"
     inkscape:window-height="942"
     inkscape:window-x="1280"
     inkscape:window-y="25"
     inkscape:window-maximized="1"
     inkscape:current-layer="g6862" />
  <g
     fill="#29166f"
     id="g6862"
     style="display:inline">
    <g
       stroke-width="1.5962"
       id="g6858"
       inkscape:label="g6858"
       style="display:inline">
      <path
         d="m 41.547,42.299 v 49.402 h 68.4 l 1.6504,-10.316 h -27.477 a 3.1527,3.1527 0 0 1 -2.5586,-4.9941 l 24.539,-34.092 z m 72.322,0 -23.596,32.781 h 25.021 a 3.1527,3.1527 0 0 1 3.1113,3.6484 l -2.0742,12.973 h 15.697 l 22.236,-31.1 h -24.648 A 3.1527,3.1527 0 0 1 126.5106,56.91 l 2.5332,-14.611 z m 21.574,0 -2.0801,11.998 h 27.031 a 3.1527,3.1527 0 0 1 2.5644,4.9863 l -23.18,32.418 h 62.51 v -49.402 z"
         fill-opacity="0.25"
         id="path6844" />
      <path
         d="M 202.29,42.299 H 41.55 v 49.403 h 160.74 z"
         fill-opacity="0.25"
         id="path6846"
         style="display:none" />
      <path
         d="m 214.46,29.947 0.003,20.308 h 12.288 v 33.852 h -12.288 l -0.003,19.944 H 29.2 V 29.947 h 185.26 m 6.1757,-24.701 h -197.61 c -10.231,8.79e-4 -18.525,8.2945 -18.526,18.526 v 86.457 c 8.763e-4,10.231 8.2945,18.525 18.526,18.526 h 197.61 c 10.233,0.002 18.529,-8.2927 18.53,-18.526 v -6.1773 h 3.0871 c 5.113,0 9.258,-4.1449 9.258,-9.258 v -55.583 c 0,-5.113 -4.1449,-9.258 -9.258,-9.258 h -3.0871 v -6.1805 c -8.8e-4,-10.232 -8.2955,-18.526 -18.527,-18.526 z"
         display="none"
         id="path6848" />
      <path
         d="M 23.02,5.2461 C 112.789,5.2469789 4.495,13.5405 4.495,23.7711 v 86.457 c 8.763e-4,10.231 8.2944,18.525 18.525,18.525 h 81.002 l 3.9512,-24.703 h -78.777 v -74.104 h 85.797 l 17.779,-24.701 z m 118.85,0 -4.2832,24.701 h 76.873 l 0.004,20.309 h 12.287 v 33.852 h -12.287 l -0.004,19.943 h -83.508 l -17.664,24.703 h 107.35 c 10.233,0.002 18.528,-8.2925 18.529,-18.525 v -6.1777 h 3.0879 c 5.113,0 9.2578,-4.1448 9.2578,-9.2578 v -55.582 c 0,-5.113 -4.1448,-9.2598 -9.2578,-9.2598 h -3.0879 v -6.1797 c -8.8e-4,-10.232 -8.2957,-18.525 -18.527,-18.525 z m -8.0059,9.2773 -11.102,15.424 -32.486,45.133 h 25.021 a 3.1527,3.1527 0 0 1 3.1113,3.6484 l -4.0508,25.322 -2.5469,15.93 11.391,-15.93 31.066,-43.449 h -24.648 a 3.1527,3.1527 0 0 1 -3.1055,-3.6914 l 4.6758,-26.963 z"
         display="none"
         id="path6850" />
      <path
         d="m 214.46,29.947 0.003,20.308 h 12.288 v 33.852 h -12.288 l -0.003,19.944 H 29.2 V 29.947 h 185.26 m 6.1757,-24.701 h -197.61 c -10.231,8.79e-4 -18.525,8.2945 -18.526,18.526 v 86.457 c 8.763e-4,10.231 8.2945,18.525 18.526,18.526 h 197.61 c 10.233,0.002 18.529,-8.2927 18.53,-18.526 v -6.1773 h 3.0871 c 5.113,0 9.258,-4.1449 9.258,-9.258 v -55.583 c 0,-5.113 -4.1449,-9.258 -9.258,-9.258 h -3.0871 v -6.1805 c -8.8e-4,-10.232 -8.2955,-18.526 -18.527,-18.526 z m -18.345,37.053 h -160.74 v 49.403 h 160.74 z"
         display="none"
         id="path6852" />
      <path
         d="M 23.02,5.2461 C 12.789,5.2469789 4.495,13.5405 4.495,23.7711 v 86.457 c 8.763e-4,10.231 8.2944,18.525 18.525,18.525 h 81.002 l 3.9512,-24.703 h -78.777 v -74.104 h 85.797 l 17.779,-24.701 z m 118.85,0 -4.2832,24.701 h 76.873 l 0.004,20.309 h 12.287 v 33.852 h -12.287 l -0.004,19.943 h -83.508 l -17.664,24.703 h 107.35 c 10.233,0.002 18.528,-8.2925 18.529,-18.525 v -6.1777 h 3.0879 c 5.113,0 9.2578,-4.1448 9.2578,-9.2578 v -55.582 c 0,-5.113 -4.1448,-9.2598 -9.2578,-9.2598 h -3.0879 v -6.1797 c -8.8e-4,-10.232 -8.2957,-18.525 -18.527,-18.525 z m -8.0059,9.2773 -11.102,15.424 -32.486,45.133 h 25.021 a 3.1527,3.1527 0 0 1 3.1113,3.6484 l -2.0742,12.973 -1.9766,12.35 -2.5469,15.93 11.391,-15.93 31.066,-43.449 h -24.648 a 3.1527,3.1527 0 0 1 -3.1055,-3.6914 l 2.5332,-14.611 2.1426,-12.352 z m -92.314,27.775 v 49.402 h 68.4 l 1.6504,-10.316 h -27.477 a 3.1527,3.1527 0 0 1 -2.5586,-4.9941 l 24.539,-34.092 z m 93.896,0 -2.0801,11.998 h 27.031 a 3.1527,3.1527 0 0 1 2.5644,4.9863 l -23.18,32.418 h 62.51 v -49.402 z"
         id="path6854" />
      <path
         d="m 214.46,29.947 0.003,20.308 h 12.288 v 33.852 h -12.288 l -0.003,19.944 H 29.2 V 29.947 h 185.26 m 6.1757,-24.701 h -197.61 c -10.231,8.79e-4 -18.525,8.2945 -18.526,18.526 v 86.457 c 8.763e-4,10.231 8.2945,18.525 18.526,18.526 h 197.61 c 10.233,0.002 18.529,-8.2927 18.53,-18.526 v -6.1773 h 3.0871 c 5.113,0 9.258,-4.1449 9.258,-9.258 v -55.583 c 0,-5.113 -4.1449,-9.258 -9.258,-9.258 h -3.0871 v -6.1805 c -8.8e-4,-10.232 -8.2955,-18.526 -18.527,-18.526 z m -18.345,37.053 h -160.74 v 49.403 h 160.74 V 74.53 l 20.212,-0.06493 v -13.929 h -20.212 z"
         display="none"
         id="path6856" />
    </g>
    <path
       d="M 133.86,14.523 90.272,75.08 h 25.021 a 3.1527,3.1527 0 0 1 3.1113,3.6484 l -6.5977,41.252 42.457,-59.379 h -24.648 A 3.1527,3.1527 0 0 1 126.5101,56.91 Z"
       display="none"
       id="path6860" />
  </g>
  <path
     d="m 139.27,-1.5898 a 3.1527,3.1527 0 0 0 -2.5254,1.3105 l -55.186,76.67 a 3.1527,3.1527 0 0 0 2.5586,4.9941 h 27.477 l -8.1309,50.832 a 3.1527,3.1527 0 0 0 5.6758,2.332 l 53.816,-75.266 a 3.1527,3.1527 0 0 0 -2.5644,-4.9863 h -27.031 l 9.0488,-52.197 A 3.1527,3.1527 0 0 0 139.2698,-1.59 Z m -5.4121,16.113 -7.3496,42.387 a 3.1527,3.1527 0 0 0 3.1055,3.6914 h 24.648 l -42.457,59.379 6.5977,-41.252 a 3.1527,3.1527 0 0 0 -3.1113,-3.6484 h -25.021 z"
     color="#000000"
     color-rendering="auto"
     dominant-baseline="auto"
     fill="#e97878"
     image-rendering="auto"
     shape-rendering="auto"
     solid-color="#000000"
     stop-color="#000000"
     style="font-variant-ligatures:normal;font-variant-position:normal;font-variant-caps:normal;font-variant-numeric:normal;font-variant-alternates:normal;font-variant-east-asian:normal;font-feature-settings:normal;font-variation-settings:normal;text-indent:0;text-decoration-line:none;text-decoration-style:solid;text-decoration-color:#000000;text-transform:none;text-orientation:mixed;white-space:normal;shape-padding:0;shape-margin:0;inline-size:0;display:none;isolation:auto;mix-blend-mode:normal"
     id="path6864" />
  <path
     d="m 139.31,1.5616 -55.185,76.67 h 31.173 l -8.7158,54.483 53.817,-75.266 h -30.778 z"
     fill="#29166f"
     stroke="#f8f8f8"
     stroke-linejoin="round"
     stroke-width="6.3047"
     id="path6866"
     style="display:none" />
</svg>
