<svg version="1.1" viewBox="0 0 256 134" xmlns="http://www.w3.org/2000/svg">
 <g>
  <g fill="#29166f">
   <g stroke-width="1.5962">
    <path d="m41.547 42.299v49.402h68.4l1.6504-10.316h-27.477a3.1527 3.1527 0 0 1-2.5586-4.9941l24.539-34.092zm72.322 0-23.596 32.781h25.021a3.1527 3.1527 0 0 1 3.1113 3.6484l-2.0742 12.973h15.697l22.236-31.1h-24.648a3.1527 3.1527 0 0 1-3.1055-3.6914l2.5332-14.611zm21.574 0-2.0801 11.998h27.031a3.1527 3.1527 0 0 1 2.5644 4.9863l-23.18 32.418h62.51v-49.402z"  fill-opacity=".25"/>
    <path d="m202.29 42.299h-160.74v49.403h160.74z"  fill-opacity=".25"/>
    <path d="m214.46 29.947 3e-3 20.308h12.288v33.852h-12.288l-3e-3 19.944h-185.26v-74.104h185.26m6.1757-24.701h-197.61c-10.231 8.79e-4 -18.525 8.2945-18.526 18.526v86.457c8.763e-4 10.231 8.2945 18.525 18.526 18.526h197.61c10.233 2e-3 18.529-8.2927 18.53-18.526v-6.1773h3.0871c5.113 0 9.258-4.1449 9.258-9.258v-55.583c0-5.113-4.1449-9.258-9.258-9.258h-3.0871v-6.1805c-8.8e-4 -10.232-8.2955-18.526-18.527-18.526z" display="none"/>
    <path d="m23.02 5.2461c-10.231 8.789e-4 -18.525 8.2944-18.525 18.525v86.457c8.763e-4 10.231 8.2944 18.525 18.525 18.525h81.002l3.9512-24.703h-78.777v-74.104h85.797l17.779-24.701zm118.85 0-4.2832 24.701h76.873l4e-3 20.309h12.287v33.852h-12.287l-4e-3 19.943h-83.508l-17.664 24.703h107.35c10.233 2e-3 18.528-8.2925 18.529-18.525v-6.1777h3.0879c5.113 0 9.2578-4.1448 9.2578-9.2578v-55.582c0-5.113-4.1448-9.2598-9.2578-9.2598h-3.0879v-6.1797c-8.8e-4 -10.232-8.2957-18.525-18.527-18.525zm-8.0059 9.2773-11.102 15.424-32.486 45.133h25.021a3.1527 3.1527 0 0 1 3.1113 3.6484l-4.0508 25.322-2.5469 15.93 11.391-15.93 31.066-43.449h-24.648a3.1527 3.1527 0 0 1-3.1055-3.6914l4.6758-26.963z" display="none"/>
    <path d="m214.46 29.947 3e-3 20.308h12.288v33.852h-12.288l-3e-3 19.944h-185.26v-74.104h185.26m6.1757-24.701h-197.61c-10.231 8.79e-4 -18.525 8.2945-18.526 18.526v86.457c8.763e-4 10.231 8.2945 18.525 18.526 18.526h197.61c10.233 2e-3 18.529-8.2927 18.53-18.526v-6.1773h3.0871c5.113 0 9.258-4.1449 9.258-9.258v-55.583c0-5.113-4.1449-9.258-9.258-9.258h-3.0871v-6.1805c-8.8e-4 -10.232-8.2955-18.526-18.527-18.526zm-18.345 37.053h-160.74v49.403h160.74z" display="none"/>
    <path d="m23.02 5.2461c-10.231 8.789e-4 -18.525 8.2944-18.525 18.525v86.457c8.763e-4 10.231 8.2944 18.525 18.525 18.525h81.002l3.9512-24.703h-78.777v-74.104h85.797l17.779-24.701zm118.85 0-4.2832 24.701h76.873l4e-3 20.309h12.287v33.852h-12.287l-4e-3 19.943h-83.508l-17.664 24.703h107.35c10.233 2e-3 18.528-8.2925 18.529-18.525v-6.1777h3.0879c5.113 0 9.2578-4.1448 9.2578-9.2578v-55.582c0-5.113-4.1448-9.2598-9.2578-9.2598h-3.0879v-6.1797c-8.8e-4 -10.232-8.2957-18.525-18.527-18.525zm-8.0059 9.2773-11.102 15.424-32.486 45.133h25.021a3.1527 3.1527 0 0 1 3.1113 3.6484l-2.0742 12.973-1.9766 12.35-2.5469 15.93 11.391-15.93 31.066-43.449h-24.648a3.1527 3.1527 0 0 1-3.1055-3.6914l2.5332-14.611 2.1426-12.352zm-92.314 27.775v49.402h68.4l1.6504-10.316h-27.477a3.1527 3.1527 0 0 1-2.5586-4.9941l24.539-34.092zm93.896 0-2.0801 11.998h27.031a3.1527 3.1527 0 0 1 2.5644 4.9863l-23.18 32.418h62.51v-49.402z"/>
    <path d="m214.46 29.947 3e-3 20.308h12.288v33.852h-12.288l-3e-3 19.944h-185.26v-74.104h185.26m6.1757-24.701h-197.61c-10.231 8.79e-4 -18.525 8.2945-18.526 18.526v86.457c8.763e-4 10.231 8.2945 18.525 18.526 18.526h197.61c10.233 2e-3 18.529-8.2927 18.53-18.526v-6.1773h3.0871c5.113 0 9.258-4.1449 9.258-9.258v-55.583c0-5.113-4.1449-9.258-9.258-9.258h-3.0871v-6.1805c-8.8e-4 -10.232-8.2955-18.526-18.527-18.526zm-18.345 37.053h-160.74v49.403h160.74v-17.172l20.212-0.06493v-13.929h-20.212z" display="none"/>
   </g>
   <path d="m133.86 14.523-43.588 60.557h25.021a3.1527 3.1527 0 0 1 3.1113 3.6484l-6.5977 41.252 42.457-59.379h-24.648a3.1527 3.1527 0 0 1-3.1055-3.6914z" display="none"/>
  </g>
  <path d="m139.27-1.5898a3.1527 3.1527 0 0 0-2.5254 1.3105l-55.186 76.67a3.1527 3.1527 0 0 0 2.5586 4.9941h27.477l-8.1309 50.832a3.1527 3.1527 0 0 0 5.6758 2.332l53.816-75.266a3.1527 3.1527 0 0 0-2.5644-4.9863h-27.031l9.0488-52.197a3.1527 3.1527 0 0 0-3.1387-3.6895zm-5.4121 16.113-7.3496 42.387a3.1527 3.1527 0 0 0 3.1055 3.6914h24.648l-42.457 59.379 6.5977-41.252a3.1527 3.1527 0 0 0-3.1113-3.6484h-25.021z" color="#000000" color-rendering="auto"  dominant-baseline="auto" fill="#e97878" image-rendering="auto" shape-rendering="auto" solid-color="#000000" stop-color="#000000" style="font-feature-settings:normal;font-variant-alternates:normal;font-variant-caps:normal;font-variant-east-asian:normal;font-variant-ligatures:normal;font-variant-numeric:normal;font-variant-position:normal;font-variation-settings:normal;inline-size:0;isolation:auto;mix-blend-mode:normal;shape-margin:0;shape-padding:0;text-decoration-color:#000000;text-decoration-line:none;text-decoration-style:solid;text-indent:0;text-orientation:mixed;text-transform:none;white-space:normal"/>
  <path d="m139.31 1.5616-55.185 76.67h31.173l-8.7158 54.483 53.817-75.266h-30.778z"  fill="#29166f" stroke="#f8f8f8" stroke-linejoin="round" stroke-width="6.3047"/>
 </g>
</svg>
