<svg
    xmlns="http://www.w3.org/2000/svg"
    viewBox="0 0 256 134"
    id="vector">
    <path
        id="path"
        d="M 23.02 5.246 C 12.789 5.247 4.495 13.54 4.494 23.771 L 4.494 110.229 C 4.495 120.46 12.789 128.753 23.02 128.754 L 104.021 128.754 L 107.973 104.051 L 29.195 104.051 L 29.195 29.947 L 114.992 29.947 L 132.771 5.246 Z M 141.867 5.246 L 137.584 29.947 L 214.457 29.947 L 214.461 50.256 L 226.748 50.256 L 226.748 84.107 L 214.461 84.107 L 214.457 104.051 L 130.949 104.051 L 113.285 128.754 L 220.631 128.754 C 230.864 128.756 239.159 120.461 239.16 110.229 L 239.16 104.051 L 242.248 104.051 C 247.361 104.051 251.506 99.906 251.506 94.793 L 251.506 39.211 C 251.506 34.098 247.361 29.951 242.248 29.951 L 239.16 29.951 L 239.16 23.771 C 239.159 13.54 230.864 5.246 220.633 5.246 Z M 133.861 14.523 L 122.76 29.947 L 113.869 42.299 L 90.273 75.08 L 115.295 75.08 C 115.904 75.08 116.501 75.258 117.012 75.59 C 117.523 75.922 117.926 76.396 118.174 76.953 C 118.421 77.51 118.502 78.127 118.406 78.729 L 116.332 91.701 L 114.355 104.051 L 111.809 119.98 L 123.199 104.051 L 132.029 91.701 L 154.266 60.602 L 129.617 60.602 C 129.003 60.601 128.401 60.422 127.888 60.084 C 127.374 59.747 126.97 59.267 126.725 58.703 C 126.481 58.139 126.407 57.516 126.512 56.91 L 129.045 42.299 L 131.188 29.947 Z M 41.547 42.299 L 41.547 91.701 L 109.947 91.701 L 111.598 81.385 L 84.121 81.385 C 83.344 81.385 82.594 81.097 82.015 80.578 C 81.437 80.059 81.071 79.344 80.987 78.571 C 80.904 77.798 81.109 77.021 81.563 76.391 L 106.102 42.299 Z M 135.443 42.299 L 133.363 54.297 L 160.395 54.297 C 161.171 54.297 161.92 54.584 162.498 55.101 C 163.076 55.619 163.443 56.333 163.528 57.104 C 163.613 57.876 163.41 58.652 162.959 59.283 L 139.779 91.701 L 202.289 91.701 L 202.289 42.299 Z"
        fill="#29166f"/>
</svg>
