<?xml version="1.0" encoding="UTF-8" standalone="no"?>
<!-- Created with Inkscape (http://www.inkscape.org/) -->

<svg
   width="512"
   height="512"
   viewBox="0 0 512 512"
   version="1.1"
   id="svg5"
   inkscape:version="1.1.1 (c3084ef, 2021-09-22)"
   sodipodi:docname="vykres.svg"
   xmlns:inkscape="http://www.inkscape.org/namespaces/inkscape"
   xmlns:sodipodi="http://sodipodi.sourceforge.net/DTD/sodipodi-0.dtd"
   xmlns="http://www.w3.org/2000/svg"
   xmlns:svg="http://www.w3.org/2000/svg">
  <sodipodi:namedview
     id="namedview7"
     pagecolor="#ffffff"
     bordercolor="#666666"
     borderopacity="1.0"
     inkscape:pageshadow="2"
     inkscape:pageopacity="0.0"
     inkscape:pagecheckerboard="0"
     inkscape:document-units="px"
     showgrid="false"
     inkscape:zoom="45.254834"
     inkscape:cx="395.9356"
     inkscape:cy="196.17794"
     inkscape:window-width="1920"
     inkscape:window-height="942"
     inkscape:window-x="1280"
     inkscape:window-y="25"
     inkscape:window-maximized="1"
     inkscape:current-layer="layer1" />
  <defs
     id="defs2" />
  <g
     inkscape:label="Vrstva 1"
     inkscape:groupmode="layer"
     id="layer1">
    <path
       id="path857"
       style="color:#000000;fill:#000000;-inkscape-stroke:none"
       d="m 157.19531,35.056641 c -7.78038,-0.05357 -15.5125,0.755083 -22.81445,1.501953 l 0.46875,-0.02539 c -6.86988,0.05437 -12.55322,3.323746 -16.76367,7.396485 -4.13328,3.998086 -7.13496,8.797026 -9.58203,13.0625 -5.44311,6.786707 -7.13549,14.725797 -7.36524,22.583984 -0.22043,3.706656 -1.385158,8.178059 -2.066404,13.125 -0.681247,4.946941 -0.810124,10.644057 1.933594,16.162107 l 0.0879,0.17578 0.0996,0.16797 c 6.03309,10.07039 13.19306,19.24863 20.20508,28.14844 2.86644,3.72565 5.79068,8.69094 9.74414,13.19531 3.86015,4.39807 9.08297,8.45085 16.06054,9.49219 10.40168,2.85479 19.40908,-1.24571 26.57618,-2.01953 l -0.23242,0.0195 c 6.27983,-0.38228 11.27538,-3.47315 15.10351,-6.9375 3.79817,-3.43724 6.74743,-7.29562 9.49609,-10.24805 8.98576,-6.80428 10.34609,-18.04682 11.04493,-26.51172 v -0.0156 l 0.002,-0.0137 c 0.34446,-4.50115 1.44919,-10.03784 1.41016,-15.9043 -0.039,-5.866461 -13.63536,-10.490963 -10.16797,-16.568359 3.46739,-6.077395 10.13281,-11.070313 10.13281,-11.070312 -34.99153,-5.100662 -25.8323,-30.287104 -57.96875,-10.597657 -5.28875,3.41472 -8.86765,16.480147 -12.48047,20.517578 l 7.45117,6.667969 c 3.42837,-3.8313 7.2333,-7.701045 11.16602,-10.240234 3.93272,-2.539189 7.71264,-3.764966 12.03906,-3.060547 l 0.26367,0.04297 0.26758,0.01367 c 9.29704,0.505345 17.91297,6.716348 25.66211,13.804687 2.81477,2.867124 3.60527,6.12282 3.63477,10.556641 0.0297,4.460904 -0.97075,9.715234 -1.38086,15.074214 -0.68352,8.25753 -2.07701,15.94152 -7.50782,19.70313 l -0.43945,0.30469 -0.36719,0.39257 c -3.24096,3.46817 -6.06938,7.11444 -8.96875,9.73829 -2.89936,2.62384 -5.55938,4.16164 -9,4.37109 l -0.11718,0.008 -0.11524,0.0117 c -9.37805,1.01254 -16.70589,4.07699 -23.01172,2.2832 l -0.36523,-0.10351 -0.375,-0.0488 c -4.21971,-0.53357 -7.19873,-2.72793 -10.29688,-6.25781 -3.09815,-3.52988 -5.93028,-8.2733 -9.33398,-12.69727 l -0.0176,-0.0234 -0.0176,-0.0215 c -6.94731,-8.81739 -13.78099,-17.63094 -19.38086,-26.93945 -1.41255,-2.93408 -1.4846,-6.163259 -0.92773,-10.207034 0.56544,-4.106 1.83386,-8.772982 2.13867,-13.898437 l 0.006,-0.08008 0.002,-0.08203 c 0.18566,-6.943044 1.41887,-12.300045 5.41211,-17.083984 l 0.28321,-0.339844 0.21875,-0.382812 c 2.30541,-4.033432 4.99064,-8.172994 7.99804,-11.082031 3.00741,-2.909037 6.03054,-4.553433 9.89063,-4.583985 l 0.23437,-0.002 0.23438,-0.02539 c 20.5579,-5.354356 37.46982,-2.54073 53.97265,2.865235 l 11.41211,5.947265 c 10.18577,7.84657 8.2832,3.730075 15.09766,13.205079 7.26561,10.511032 6.93444,26.006855 7.95703,40.050778 -0.13298,10.31181 0.62304,20.03263 -2.77734,27.78906 -5.47405,11.52026 -13.34697,22.15712 -24.66016,25.8711 l -0.0625,0.0195 -0.0625,0.0234 c -11.59487,4.1471 -23.65942,7.36816 -35.81055,10.44532 -11.49193,2.25414 -23.74126,0.29627 -33.2539,-6.20118 l -0.082,-0.0566 -0.0859,-0.0527 C 112.26916,157.164 98.437551,146.45244 89.361328,132.27539 l -0.113281,-0.17773 -0.128906,-0.16602 c -5.224156,-6.82424 -6.646896,-15.97966 -5.767579,-25.1582 l 0.03906,-0.40821 -0.0293,-0.41015 c -0.708163,-10.39267 1.526569,-21.044678 4.67774,-31.558596 l -8.148437,2.267578 -1.583984,-1.4375 0.0098,-1.208984 10,0.08203 0.02734,-3.269531 -7.605469,-6.90039 -2.277343,7.595703 c -3.270502,10.912069 -5.831978,22.60725 -5.078126,34.72266 -0.955372,10.69497 0.613715,22.36173 7.785157,31.74218 0.0047,0.006 0.007,0.0134 0.01172,0.0195 10.284583,15.88779 25.2661,27.2893 40.43359,36.79492 12.02534,8.19544 26.97481,10.46351 40.85156,7.72265 l 0.13086,-0.0254 0.12891,-0.0312 c 12.27091,-3.10566 24.68088,-6.40763 36.83594,-10.75 15.27652,-5.03431 24.55717,-18.44641 30.58007,-31.15234 l 0.0293,-0.0625 0.0274,-0.0625 c 4.832,-10.96049 3.50137,-22.37014 3.64062,-31.99024 l 0.004,-0.21874 -0.0156,-0.2168 c -1.02904,-14.167435 -2.12291,-30.415322 -11.4375,-43.853519 l -0.0234,-0.0332 -0.0234,-0.0332 c -9.3267,-13.006668 -24.74396,-17.567714 -35.93164,-22.701172 -8.25252,-4.257249 -17.06171,-5.900629 -25.87891,-6.261718 -1.11236,-0.04556 -2.22445,-0.07047 -3.33594,-0.07813 z M 394.17188,194.72854 c 2.16034,-2.5204 3.66921,-4.17909 4.77539,-5.62305 1.10617,-1.44396 1.80868,-2.68982 2.29101,-4.29492 0.96466,-3.21021 1.09826,-7.78788 2.30664,-18.83594 0.91533,-8.36875 1.72123,-25.22356 -2.89648,-34.45899 -2.57332,-5.14664 -9.75482,-9.70969 -13.70313,-12.30078 -22.84508,-14.99208 -44.2879,-19.30859 -71.48437,-19.30859 v -2e-5 c -17.89512,0 -30.05057,1.90977 -46.47461,8.58203 -4.55557,1.8507 -10.02046,2.84273 -13.69531,6.51758 -4.68799,4.68799 -7.65396,10.78581 -10.76758,16.49414 -3.77564,6.92199 -8.58134,17.96523 -10.02149,25.7832 -0.29804,1.61793 -0.51673,6.13921 -0.65429,10.91407 -0.13757,4.77485 -0.17999,9.71691 -0.0664,11.98828 0.0944,1.88833 0.21586,3.02675 0.36719,3.82031 0.15132,0.79356 0.34373,1.25023 0.52929,1.67578 0.37113,0.85111 0.77217,1.69758 1.24219,5.92774 0.46506,4.18555 0.0681,8.52641 0.71485,12.83789 0.80153,5.34359 2.3623,10.50975 3.56835,15.70507 7.51798,32.38517 3.22668,15.05998 11.39844,44.17188 8.77403,31.25746 1.72075,10.23993 13.54883,39.21875 2.19033,5.36629 3.34886,11.33139 6.44336,16.44922 2.08931,3.4554 6.28045,8.53614 10.99805,13.18945 4.71759,4.65331 9.92702,8.8668 14.17187,10.51758 4.17638,1.62414 8.79741,0.57682 12.98047,0.74414 5.62331,0.22493 10.26001,-2.00026 14.48633,-5.03711 4.22632,-3.03685 8.07443,-6.88679 12.18359,-10.01758 4.5121,-3.43779 9.50168,-6.35697 13.49219,-10.02734 3.99051,-3.67037 6.97821,-8.13927 7.35547,-14.55274 0.34107,-5.79806 -2.4106,-11.25123 -5.04883,-15.9414 -1.17265,-2.08471 -2.05523,-4.44722 -3.59961,-6.4668 -6.88914,-9.00889 -18.82624,-14.21872 -28.67383,-18.66601 -2.34985,-1.06122 -6.94882,-2.57954 -11.42578,-4.41211 -4.47695,-1.83258 -8.81882,-4.03059 -10.46289,-6.12305 -0.30328,-0.38599 -0.99404,-1.66264 -1.76758,-3.27149 -0.77353,-1.60884 -1.66778,-3.58677 -2.52539,-5.53515 -1.71522,-3.89677 -3.30641,-7.73466 -3.46484,-8.15235 -4.70308,-12.39901 -4.95313,-24.37005 -4.95313,-37.56445 0,-11.12599 -1.43888,-21.59495 3.51172,-31.82617 5.80197,-11.99074 16.41242,-19.83355 28.2461,-25.40234 3.4738,-1.63474 7.86946,-3.79442 12.35742,-5.08008 4.48796,-1.28566 9.03637,-1.68373 12.85351,0.0977 11.14815,5.20247 16.52431,15.07571 22.56641,25.4336 1.41802,2.43089 3.13755,4.62878 4.25,7.07617 2.45308,5.39678 3.66363,11.60264 6.41602,17.10742 0.38008,0.76016 1.17316,1.50382 2.19336,2.30664 1.02019,0.80283 2.27278,1.63486 3.56445,2.41602 2.58332,1.56232 5.27904,2.90877 6.63672,3.36133 0.85984,0.28661 1.56164,0.13082 2.05664,0.0957 0.49499,-0.0351 0.77283,-0.0397 1.30859,0.49609 1.09998,0.8511 1.97376,0.54763 2.87109,-0.0293 z m -2.47342,-0.65756 c -0.71242,-0.71242 -1.16985,-0.8503 -1.77657,-0.80726 -0.60672,0.043 -1.0638,0.1552 -1.66993,-0.0469 -1.15875,-0.38625 -3.90098,-1.73475 -6.43554,-3.26758 -1.26729,-0.76641 -2.49372,-1.5815 -3.46485,-2.3457 -0.97112,-0.76421 -1.68439,-1.50552 -1.91601,-1.96875 -2.66935,-5.33871 -3.8802,-11.52979 -6.40039,-17.07422 -1.17849,-2.59267 -2.92337,-4.81477 -4.29493,-7.16602 -6.03242,-10.34131 -11.53209,-20.48061 -23.00781,-25.83594 -4.14275,-1.93328 -8.94638,-1.47192 -13.55273,-0.15234 -4.60635,1.31958 -9.04759,3.50838 -12.50781,5.13672 -11.95261,5.62476 -22.78499,13.60394 -28.72071,25.87109 -5.09973,10.53944 -3.61133,21.22384 -3.61133,32.26172 0,13.20682 0.24297,25.33036 5.01758,37.91797 0.21597,0.56936 1.76577,4.29227 3.48633,8.20117 0.86028,1.95445 1.7572,3.94025 2.53906,5.56641 0.78186,1.62616 1.41178,2.85556 1.88281,3.45508 1.94332,2.4733 6.34955,4.58161 10.86915,6.43164 4.51959,1.85002 9.16587,3.39087 11.39257,4.39648 9.85525,4.45076 21.63099,9.65145 28.29297,18.36328 1.42464,1.86298 2.2979,4.17434 3.52149,6.34961 2.62042,4.65854 5.2421,9.94872 4.92187,15.39258 -0.36087,6.13479 -3.15505,10.30797 -7.0332,13.875 -3.87816,3.56703 -8.84502,6.47967 -13.42188,9.9668 -4.18342,3.18737 -8.02842,7.03362 -12.16211,10.0039 -4.13369,2.97029 -8.52383,5.06319 -13.86328,4.84961 -4.36847,-0.17474 -8.85619,0.79811 -12.65625,-0.67969 -3.96119,-1.54045 -9.16532,-5.68988 -13.83398,-10.29492 -4.66867,-4.60504 -8.83719,-9.67755 -10.84375,-12.99609 -2.97226,-4.91566 -4.13252,-10.8193 -6.37305,-16.30859 -11.83947,-29.00673 -4.7315,-7.83181 -13.51172,-39.11133 -8.17504,-29.12361 -3.86755,-11.73862 -11.38672,-44.12891 -1.21589,-5.2377 -2.76744,-10.37858 -3.55468,-15.62695 -0.62286,-4.15222 -0.22894,-8.47837 -0.70899,-12.79883 -0.4757,-4.28127 -0.95356,-5.37768 -1.32031,-6.21875 -0.18338,-0.42053 -0.32624,-0.74628 -0.46289,-1.46289 -0.13665,-0.71661 -0.25635,-1.81646 -0.34961,-3.68164 -0.10927,-2.18534 -0.0708,-7.14951 0.0664,-11.91016 0.13715,-4.76064 0.3866,-9.40396 0.63672,-10.76172 1.39829,-7.59071 6.18632,-18.64499 9.91796,-25.48632 3.12855,-5.73569 6.06605,-11.73597 10.59571,-16.26563 3.38256,-3.38256 8.67208,-4.39303 13.36328,-6.29883 16.32682,-6.63276 28.27514,-8.50781 46.09961,-8.50781 27.09113,0 48.25634,4.2613 70.93554,19.14453 3.9556,2.59587 11.01821,7.23368 13.35743,11.91211 4.37451,8.74903 3.70268,25.62069 2.79687,33.90234 -1.21067,11.06896 -1.37491,15.68106 -2.26953,18.65821 -0.44731,1.48857 -1.06364,2.58659 -2.12695,3.97461 -1.06332,1.38801 -3.12574,3.18229 -5.29462,5.71265 -0.41363,0.48095 -0.98035,0.19398 -1.16122,-0.13974 z m -44.09494,24.76496 c -0.19652,-0.0393 -0.44723,-0.0393 -0.66016,0.12109 -0.21293,0.16036 -0.27691,0.41012 -0.2832,0.58789 -0.0126,0.35555 0.10644,0.64587 0.24218,0.98047 0.27149,0.66919 0.69463,1.44848 0.84961,1.83594 2.89707,7.24267 6.1274,13.93582 10,20.71289 4.10835,7.1896 10.88042,12.4387 14.95899,19.23633 6.1579,10.26318 5.52047,18.10319 4.91406,29.625 -0.11596,2.20322 0.21641,4.34503 0.002,6.38281 -0.53002,5.03531 -2.1098,9.24057 -3.54297,14.1543 -1.67283,5.73545 -2.65702,11.65287 -4.96289,17.0332 -3.92224,9.1519 -11.67566,22.3753 -19.10156,29.01953 -2.60676,2.33237 -5.67139,4.18322 -8.51758,6.38672 -4.57921,3.54519 -8.6614,7.68122 -13.48633,10.65039 -4.46123,2.74539 -10.77832,5.76285 -17.30468,7.46094 -6.52636,1.69809 -13.2459,2.0657 -18.54102,-0.36719 -5.45905,-2.5082 -9.92498,-6.92324 -14.86328,-10.62695 -9.39136,-7.04352 -19.86884,-14.72772 -26.22461,-24.79102 -5.48531,-8.68507 -8.13839,-23.89106 -12.0625,-34.09375 -1.68058,-4.3695 -2.46907,-5.92193 -3.24414,-7.29297 -0.77507,-1.37104 -1.51752,-2.53306 -3.17383,-6.25976 -3.40261,-7.65588 -5.96084,-15.70859 -9.2539,-23.49219 -1.74879,-4.13349 -4.09862,-11.11758 -6.79493,-17.85156 -2.6963,-6.73398 -5.70549,-13.21527 -8.97851,-16.48828 -0.40731,-0.40731 -0.9556,-0.55627 -1.45899,-0.51368 -0.50338,0.0426 -0.98058,0.23546 -1.45117,0.46875 -0.94117,0.46659 -1.88705,1.11666 -2.58594,1.34961 -4.99843,1.66614 -9.90927,3.543 -14.93359,4.97852 -7.51272,2.14649 -15.13372,3.92914 -22.76172,5.68945 -0.0836,0.0193 -0.27181,-0.002 -0.5332,-0.0449 -0.26139,-0.0425 -0.62462,-0.10269 -1.00195,0.0859 -0.19424,0.0971 -0.33582,0.34518 -0.35547,0.51172 -0.0196,0.16653 0.009,0.27237 0.0293,0.35937 0.0415,0.174 0.0369,0.29817 0.0586,0.18945 -0.19071,0.95358 -0.397,1.89415 -0.69531,2.78907 -0.38565,1.15695 -1.00104,2.29218 -1.42383,3.56054 -0.63096,1.89289 -1.88927,4.3524 -2.15821,6.50391 -0.0972,0.7774 -0.34181,2.87748 -0.52929,4.99023 -0.0937,1.05638 -0.17288,2.11552 -0.21289,3.01563 -0.04,0.90011 -0.0486,1.61693 0.0332,2.10742 0.079,0.47415 0.28415,0.85903 0.44141,1.19531 0.15726,0.33628 0.26367,0.61479 0.26367,0.85938 0,3.13085 -1.81081,10.33671 -2.82227,13.37109 -0.10367,0.31103 -0.0524,0.46886 -0.0332,0.73438 0.0192,0.26552 0.0521,0.57131 0.0781,0.87304 0.0261,0.30174 0.0453,0.60077 0.041,0.82422 -0.004,0.22345 -0.0914,0.38164 -0.0117,0.27539 -0.54767,0.73023 -1.34441,1.33661 -2.08984,2.08203 l -0.10547,0.10547 -0.0312,0.14453 c -4.47479,20.96194 5.0856,41.05762 12.84766,59.4043 0.51358,1.21392 2.10978,3.7404 3.78124,6.36328 1.67149,2.62289 3.40649,5.30003 4.07422,6.50196 2.44769,4.40583 3.89724,8.7983 7.16797,12.88672 10.02679,12.5335 23.51201,29.64905 36.39453,39.95507 2.30891,1.84712 4.88317,3.24507 7.12696,4.99024 7.62165,5.92795 13.38461,10.8476 22.92382,14.3164 4.2195,1.53435 8.62195,2.34847 12.84961,3.57227 4.72462,1.36764 9.35855,3.29632 14.28321,4.28125 14.9784,2.99568 23.7961,2.14648 39.26367,2.14648 17.61694,0 18.6289,1.54089 35.05859,-4.30078 6.58262,-2.34048 17.48856,-7.50513 27.91602,-13.43359 10.42746,-5.92847 20.34967,-12.58279 24.99414,-18.04688 0.52458,-0.61715 1.47202,-2.09283 2.6875,-4.05273 1.21548,-1.95991 2.6642,-4.37007 4.05859,-6.71875 1.3944,-2.34868 2.73447,-4.63401 3.73243,-6.3457 0.49898,-0.85585 0.91324,-1.56823 1.20507,-2.07227 0.14592,-0.25202 0.26105,-0.45158 0.3418,-0.5918 0.0808,-0.14021 0.0989,-0.1693 0.14063,-0.24804 13.89942,-26.25449 20.78636,-53.31346 22.84374,-82.80274 1.28628,-18.43654 0.92122,-40.98916 -10.77929,-56.58984 -8.76206,-11.68274 -23.7619,-15.7673 -36.53321,-20.81641 -7.80459,-3.08554 -11.85954,-4.6541 -13.98046,-5.46484 -1.06046,-0.40537 -1.63772,-0.62193 -1.95508,-0.74219 -0.31736,-0.12026 -0.36065,-0.15758 -0.28516,-0.0977 0.0755,0.06 -0.0661,-0.0759 -0.29492,-0.21485 -0.22887,-0.13894 -0.6357,-0.36067 -1.46875,-0.77344 -1.66609,-0.82554 -5.02477,-2.40962 -11.90234,-5.51562 -3.93945,-1.7791 -7.81892,-4.14074 -12.21289,-5.01953 z m 0.16406,1.10547 c 4.02068,0.89147 7.74157,3.06708 11.63672,4.82617 6.87267,3.10379 10.2264,4.68409 11.86914,5.49804 0.82136,0.407 1.2181,0.62414 1.39648,0.73243 0.17839,0.10829 0.047,0.0298 0.19141,0.14453 0.14438,0.11471 0.22881,0.12799 0.55078,0.25 0.32196,0.12201 0.89503,0.33772 1.95312,0.74219 2.1162,0.80893 6.16653,2.37438 13.96875,5.45898 12.84674,5.07894 27.60242,9.15413 36.10157,20.48633 11.4278,15.23706 11.86531,37.55605 10.58398,55.92187 -2.04958,29.37716 -8.90002,56.28012 -22.73047,82.4043 0.0294,-0.0556 -0.0448,0.0756 -0.125,0.21484 -0.0802,0.1392 -0.19421,0.33832 -0.33984,0.58985 -0.29127,0.50305 -0.70465,1.21533 -1.20313,2.07031 -0.99696,1.70997 -2.33599,3.99432 -3.72851,6.33984 -1.39252,2.34552 -2.83936,4.75291 -4.04883,6.70313 -1.20947,1.95022 -2.21516,3.47739 -2.59961,3.92969 -4.4458,5.23035 -14.34281,11.92255 -24.72656,17.82617 -10.38376,5.90362 -21.28289,11.05787 -27.75586,13.35937 -16.36646,5.81919 -17.04881,4.24414 -34.72461,4.24414 -15.5041,0 -24.19945,0.84683 -39.06836,-2.12695 -4.79555,-0.95911 -9.40398,-2.87307 -14.20117,-4.26172 -4.29133,-1.24223 -8.66985,-2.05431 -12.78516,-3.55078 -9.37565,-3.40933 -15.01199,-8.22352 -22.65234,-14.16602 -2.33039,-1.81252 -4.89911,-3.20757 -7.11524,-4.98046 -12.72607,-10.18086 -26.20755,-27.26235 -36.23828,-39.80078 -3.14119,-3.9265 -4.57213,-8.24429 -7.07422,-12.74805 -0.71739,-1.29131 -2.43718,-3.93487 -4.10546,-6.55274 -1.66828,-2.61786 -3.29663,-5.25137 -3.70508,-6.21679 -7.75777,-18.33655 -17.12531,-38.17157 -12.80664,-58.67383 0.65811,-0.63824 1.43907,-1.23844 2.06445,-2.07227 0.23241,-0.30988 0.2073,-0.56298 0.21289,-0.85547 0.006,-0.29248 -0.0178,-0.61529 -0.0449,-0.92968 -0.0272,-0.3144 -0.0589,-0.62067 -0.0762,-0.85938 -0.0173,-0.23871 0.026,-0.4765 -0.0176,-0.3457 1.0457,-3.13711 2.875,-10.19056 2.875,-13.6875 0,-0.50602 -0.18949,-0.92409 -0.35742,-1.2832 -0.16794,-0.35912 -0.31696,-0.66929 -0.36133,-0.93555 -0.0491,-0.29433 -0.0585,-1.02255 -0.0195,-1.89844 0.0389,-0.87589 0.11604,-1.92327 0.20898,-2.9707 0.18589,-2.09487 0.43024,-4.19381 0.52539,-4.95508 0.23116,-1.84929 1.44185,-4.30014 2.11328,-6.31445 0.38565,-1.15695 1.003,-2.29218 1.42578,-3.56055 0.32067,-0.962 0.53342,-1.94242 0.72657,-2.9082 0.0397,-0.19886 -0.01,-0.25486 -0.0391,-0.35938 0.0603,0.002 0.0705,-0.012 0.16797,0.004 0.22891,0.0372 0.53903,0.12065 0.91797,0.0332 7.62999,-1.76077 15.26872,-3.54776 22.8125,-5.70312 5.08001,-1.45144 10.00365,-3.33521 14.97461,-4.99219 0.94051,-0.3135 1.87704,-0.98602 2.71289,-1.40039 0.41793,-0.20719 0.80215,-0.34464 1.0918,-0.36914 0.28964,-0.0245 0.46431,0.0209 0.66797,0.22461 3.01627,3.01627 6.07574,9.45587 8.75781,16.15429 2.68207,6.69843 5.02195,13.66002 6.80273,17.86914 3.26895,7.72659 5.82713,15.78439 9.25977,23.50782 1.67016,3.75787 2.45707,5.0018 3.2168,6.3457 0.75973,1.3439 1.51011,2.8142 3.18164,7.16016 3.85764,10.02989 6.46413,25.26433 12.15039,34.26757 6.49746,10.28765 17.08636,18.01838 26.4707,25.05664 4.86285,3.64714 9.37138,8.12958 15.04492,10.73633 5.61893,2.58167 12.5579,2.15879 19.21094,0.42774 6.65304,-1.73105 13.03689,-4.78352 17.57813,-7.57813 4.96241,-3.05378 9.06442,-7.221 13.57226,-10.71094 2.78454,-2.15577 5.87413,-4.01577 8.57422,-6.43164 7.65695,-6.85096 15.37959,-20.1051 19.35156,-29.37304 2.36931,-5.52838 3.35558,-11.48835 5.00586,-17.14649 1.42055,-4.87044 3.03257,-9.14724 3.57813,-14.33007 0.23277,-2.21135 -0.1067,-4.37015 0.002,-6.4336 0.60577,-11.50963 1.23364,-19.70956 -5.05664,-30.19336 -4.21074,-7.01792 -10.97182,-12.25976 -14.94727,-19.2168 -3.85072,-6.73876 -7.05866,-13.38589 -9.93945,-20.58789 -0.2085,-0.52123 -0.61991,-1.26402 -0.85352,-1.83984 -0.0427,-0.10536 -0.0346,-0.12105 -0.0605,-0.20898 z"
       sodipodi:nodetypes="sccsccsccccscccsccccssccccsccccsccccsccccccsccccsccccccscccccccccccccccccccccccccccccccccccccccccccccccssscsssssssssssssssssssssssssssssssssscsssscsssssssccccsssssssssssssscssssssssssssssssssssssssssssssscccsssssssssssssssssssssssscsscssccssssscsssscccsccsssssssssssssssssscsssssssssscssssssssscsssssssssssssssssscsccscssscsssscccssssscssssssssssssssscsssscssss" />
  </g>
</svg>
